<?xml version="1.0" encoding="UTF-8" standalone="no"?>
<svg
   xmlns:dc="http://purl.org/dc/elements/1.1/"
   xmlns:cc="http://creativecommons.org/ns#"
   xmlns:rdf="http://www.w3.org/1999/02/22-rdf-syntax-ns#"
   xmlns:svg="http://www.w3.org/2000/svg"
   xmlns="http://www.w3.org/2000/svg"
   viewBox="0 0 11.36324 15.5556"
   height="11px"
   width="8px"
   xml:space="preserve"
   id="svg2"
   version="1.1"><metadata
     id="metadata8"><rdf:RDF><cc:Work
         rdf:about=""><dc:format>image/svg+xml</dc:format><dc:type
           rdf:resource="http://purl.org/dc/dcmitype/StillImage" /></cc:Work></rdf:RDF></metadata><defs
     id="defs6"><clipPath
       id="clipPath18"
       clipPathUnits="userSpaceOnUse"><path
         id="path16"
         d="M 0,11.667 H 8.522 V 0 H 0 Z" /></clipPath></defs><g
     transform="matrix(1.3333333,0,0,-1.3333333,0,15.5556)"
     id="g10"><g
       id="g12"><g
         clip-path="url(#clipPath18)"
         id="g14"><g
           transform="translate(8.5155,0.922)"
           id="g20"><path
             id="path22"
             style="fill:#000000;fill-opacity:1;fill-rule:nonzero;stroke:none"
             d="m 0,0 c -0.042,-0.153 -0.15,-0.255 -0.322,-0.305 l -2.025,-0.574 c -0.094,-0.033 -0.205,-0.047 -0.332,-0.042 -0.126,0.004 -0.244,0.023 -0.352,0.057 -0.008,0.003 -0.031,0.011 -0.069,0.025 -0.038,0.013 -0.087,0.033 -0.146,0.06 -0.14,0.062 -0.358,0.184 -0.652,0.365 -0.296,0.181 -0.635,0.453 -1.017,0.815 -0.383,0.362 -0.791,0.831 -1.224,1.407 -0.432,0.575 -0.849,1.286 -1.25,2.131 -0.324,0.662 -0.567,1.265 -0.731,1.809 -0.163,0.544 -0.274,1.03 -0.33,1.456 -0.058,0.426 -0.077,0.797 -0.059,1.115 0.018,0.317 0.053,0.582 0.104,0.795 0.051,0.213 0.105,0.374 0.163,0.483 0.057,0.109 0.09,0.169 0.095,0.182 0.054,0.08 0.126,0.154 0.219,0.221 0.092,0.068 0.188,0.113 0.286,0.136 l 2.029,0.584 c 0.142,0.041 0.28,0.031 0.413,-0.028 0.096,-0.043 0.17,-0.105 0.222,-0.184 0.053,-0.08 0.09,-0.166 0.112,-0.258 L -4.533,7.823 C -4.512,7.693 -4.542,7.576 -4.624,7.471 -4.707,7.366 -4.814,7.293 -4.946,7.256 L -5.693,7.041 C -5.714,7.035 -5.736,7.021 -5.76,6.997 -5.783,6.974 -5.8,6.953 -5.808,6.935 -5.837,6.791 -5.838,6.611 -5.81,6.396 c 0.022,-0.188 0.077,-0.432 0.164,-0.729 0.088,-0.298 0.24,-0.663 0.454,-1.096 0.203,-0.435 0.398,-0.79 0.586,-1.065 0.186,-0.274 0.349,-0.487 0.489,-0.64 0.14,-0.153 0.253,-0.257 0.338,-0.314 L -3.651,2.466 C -3.637,2.46 -3.61,2.454 -3.573,2.448 -3.536,2.443 -3.507,2.443 -3.486,2.449 l 0.873,0.259 c 0.177,0.041 0.355,0.021 0.532,-0.058 0.125,-0.057 0.217,-0.12 0.273,-0.19 L -1.797,2.455 -0.139,0.433 C -0.021,0.282 0.026,0.138 0,0" /></g></g></g></g></svg>