<svg xmlns="http://www.w3.org/2000/svg" viewBox="0 0 21.994 15.71" height="11" width="15" xml:space="preserve" id="svg2" version="1.1"><defs id="defs6"><clipPath id="clipPath18" clipPathUnits="userSpaceOnUse"><path id="path16" d="M0 11.782h16.495V0H0z"/></clipPath></defs><g transform="matrix(1.33333 0 0 -1.33333 0 15.71)" id="g10"><g id="g12"><g clip-path="url(#clipPath18)" id="g14"><g transform="translate(8.248 3.535)" id="g20"><path id="path22" d="M0 0l-2.041 1.786-5.834-5.001c.212-.198.497-.32.813-.32H7.062c.314 0 .599.122.81.32L2.041 1.786z" fill="#000" fill-opacity="1" fill-rule="nonzero" stroke="none"/></g><g transform="translate(16.122 11.462)" id="g24"><path id="path26" d="M0 0c-.212.198-.497.32-.813.32h-14.124c-.313 0-.599-.122-.81-.322l7.872-6.748z" fill="#000" fill-opacity="1" fill-rule="nonzero" stroke="none"/></g><g transform="translate(0 10.748)" id="g28"><path id="path30" d="M0 0v-9.789l5.694 4.838z" fill="#000" fill-opacity="1" fill-rule="nonzero" stroke="none"/></g><g transform="translate(10.801 5.798)" id="g32"><path id="path34" d="M0 0l5.694-4.838v9.792z" fill="#000" fill-opacity="1" fill-rule="nonzero" stroke="none"/></g></g></g></g></svg>