<svg xmlns="http://www.w3.org/2000/svg" viewBox="0 0 11.363 15.556" height="11" width="8" xml:space="preserve" id="svg2" version="1.1"><defs id="defs6"><clipPath id="clipPath18" clipPathUnits="userSpaceOnUse"><path id="path16" d="M0 11.667h8.522V0H0z"/></clipPath></defs><g transform="matrix(1.33333 0 0 -1.33333 0 15.556)" id="g10"><g id="g12"><g clip-path="url(#clipPath18)" id="g14"><g transform="translate(8.515 .922)" id="g20"><path id="path22" d="M0 0c-.042-.153-.15-.255-.322-.305l-2.025-.574a.897.897 0 0 0-.332-.042 1.31 1.31 0 0 0-.352.057l-.069.025a1.65 1.65 0 0 0-.146.06c-.14.062-.358.184-.652.365-.296.181-.635.453-1.017.815-.383.362-.791.831-1.224 1.407-.432.575-.849 1.286-1.25 2.131a12.153 12.153 0 0 0-.731 1.809 9.46 9.46 0 0 0-.33 1.456 5.9 5.9 0 0 0-.059 1.115c.018.317.053.582.104.795.051.213.105.374.163.483.057.109.09.169.095.182a.88.88 0 0 0 .219.221.78.78 0 0 0 .286.136l2.029.584c.142.041.28.031.413-.028a.507.507 0 0 0 .222-.184.8.8 0 0 0 .112-.258l.333-2.427a.436.436 0 0 0-.091-.352.612.612 0 0 0-.322-.215l-.747-.215a.16.16 0 0 1-.067-.044.23.23 0 0 1-.048-.062 1.686 1.686 0 0 1-.002-.539c.022-.188.077-.432.164-.729.088-.298.24-.663.454-1.096.203-.435.398-.79.586-1.065.186-.274.349-.487.489-.64a2.1 2.1 0 0 1 .338-.314l.128-.086a.396.396 0 0 1 .078-.018.224.224 0 0 1 .087.001l.873.259a.822.822 0 0 0 .532-.058.737.737 0 0 0 .273-.19l.011-.005L-.139.433C-.021.282.026.138 0 0" fill="#000" fill-opacity="1" fill-rule="nonzero" stroke="none"/></g></g></g></g></svg>